<svg id="Capa_1" data-name="Capa 1" xmlns="http://www.w3.org/2000/svg" width="469.04" height="468.72" viewBox="0 0 469.04 468.72"><title>paper-plane6</title><path d="M268,435l1-1L449,24,24,205l136,92Z" transform="translate(0 -0.16)" fill="#f2dc72"/><path d="M465,4.08a13.52,13.52,0,0,0-14.9-2.8L8.12,195A13.67,13.67,0,0,0,0,206.68a13.42,13.42,0,0,0,6.8,12.4l154.1,87.4,91.5,155.7a13.61,13.61,0,0,0,11.6,6.7h.8a13.53,13.53,0,0,0,11.6-8.1L467.92,19A13.35,13.35,0,0,0,465,4.08ZM394.72,55l-226.2,224.7-124.9-70.8Zm-132.5,370.6-74.5-126.9,227.5-226Z" transform="translate(0 -0.16)" fill="#e54642"/></svg>