<svg id="Capa_1" data-name="Capa 1" xmlns="http://www.w3.org/2000/svg" width="512" height="511.98" viewBox="0 0 512 511.98"><title>plant</title><path d="M371.81,277.58a68.39,68.39,0,0,1-77-68.73c.27-35.45,27.59-63.85,62.88-67.26,52.83-5.11,113.32,28.86,136.77,43.62a10.1,10.1,0,0,1,2,15.5C477.05,221.26,425.36,270.78,371.81,277.58Z" transform="translate(0 -0.01)" fill="#095ed8"/><path d="M496.45,200.71a10.06,10.06,0,0,0,2.72-6.42C376.75,188.87,297.68,229,297.68,229a68.33,68.33,0,0,0,74.13,48.59C425.36,270.78,477.05,221.26,496.45,200.71Z" transform="translate(0 -0.01)" fill="#0a6f7f"/><path d="M206.45,96a94.15,94.15,0,0,1-12.16,133.91C150.8,265.44,86.21,252.52,54.11,206.42,12.13,146.11,7.71,52.12,7.52,19.3a10.12,10.12,0,0,1,11.89-10C54,15.15,156.25,36.93,206.45,96Z" transform="translate(0 -0.01)" fill="#0a6f7f"/><path d="M19.41,9.3a10.16,10.16,0,0,0-9.95,4c38.51,36.77,133,131.67,180,220,1.6-1.15,3.24-2.22,4.8-3.5A94.15,94.15,0,0,0,206.45,96C156.25,36.93,54,15.15,19.41,9.3Z" transform="translate(0 -0.01)" fill="#095ed8"/><path d="M511.94,190.87a7.45,7.45,0,0,0-3.09-5.16,351.56,351.56,0,0,0-50.7-28.86c-39.79-18.59-74.95-26.11-104.5-22.36a76,76,0,0,0-65.71,84.82c.3,2.34.71,4.64,1.21,6.91-24.6,13.26-48.93,31.65-68.55,57.16q-4.89-11.92-10.27-23.62-5.55-12-11.66-23.8c.63-.52,1.27-1,1.89-1.54A101.79,101.79,0,0,0,212.17,91.11C185.94,60.26,143.63,35.56,86.42,17.68A483.9,483.9,0,0,0,8.55.06,7.52,7.52,0,0,0,.15,7.2,482.43,482.43,0,0,0,5,86.89C13.46,146.23,31,192,57.26,222.81a101.79,101.79,0,0,0,129,21.78q5.37,10.46,10.32,21.11a577.54,577.54,0,0,1,39.85,118.82c12.2,55.88,13.26,102.57,12.12,119.45a7.49,7.49,0,0,0,7,8l.53,0a7.49,7.49,0,0,0,7.47-7c.15-2.07,3.3-51.32-12.3-123.12a592.34,592.34,0,0,0-24.11-81.95c18.38-26.65,42.33-45.67,66.82-59.23a76,76,0,0,0,69.15,44.92,77.42,77.42,0,0,0,9.71-.61h0c69.93-8.88,134.76-85.14,137.48-88.38A7.51,7.51,0,0,0,511.94,190.87ZM68.69,213.1C18.77,154.38,15,46.89,15,16.19c30.29,4.94,135.79,25.92,185.71,84.64a86.76,86.76,0,0,1-9.29,121.62,585.78,585.78,0,0,0-67.76-97.8,7.5,7.5,0,0,0-11.4,9.75,570.88,570.88,0,0,1,66.93,96.91A86.8,86.8,0,0,1,68.69,213.1Zm389.92,12.75c-21.71,17.88-54.56,40.07-87.74,44.29h0a60.92,60.92,0,0,1-63.58-36.31c27.88-13.25,55.27-20,74.78-23.33a7.5,7.5,0,0,0-2.56-14.78,309,309,0,0,0-76.41,23.52c-.1-.61-.2-1.21-.28-1.82a60.94,60.94,0,0,1,52.72-68,104.67,104.67,0,0,1,13.06-.8c29.59,0,60.77,11.41,83,21.75a361.29,361.29,0,0,1,41.59,22.93A359.9,359.9,0,0,1,458.61,225.85Z" transform="translate(0 -0.01)" fill="#e54642"/><path d="M93,91.4A7.5,7.5,0,0,0,82.36,102c2.75,2.77,5.5,5.59,8.17,8.38A7.5,7.5,0,1,0,101.37,100C98.63,97.12,95.82,94.23,93,91.4Z" transform="translate(0 -0.01)" fill="#7a4654"/><path d="M423.67,191.05h-.07c-.17,0-4.45,0-11.75.6a7.5,7.5,0,0,0,.56,15l.57,0c6.75-.51,10.73-.56,10.77-.56a7.5,7.5,0,0,0-.08-15Z" transform="translate(0 -0.01)" fill="#7a4654"/></svg>