<svg id="Capa_1" data-name="Capa 1" xmlns="http://www.w3.org/2000/svg" width="512" height="512" viewBox="0 0 512 512"><title>seal</title><polygon points="413 365 466 278 464 167 398 64 292 12 188 21 118 67 69 124 47 207 55 285 97 367 154 446 243 485 296 479 356 450 391 414 413 365" fill="#afcbe0"/><path d="M256,349.83c-32.56,0-59.05,21.4-59.05,47.7s26.49,47.7,59.05,47.7,59.05-21.4,59.05-47.7S288.56,349.83,256,349.83Zm0,75.31c-21.12,0-39-12.65-39-27.61s17.84-27.61,39-27.61,39,12.65,39,27.61S277.12,425.14,256,425.14Z" fill="#e54642"/><path d="M352.74,182.55a45.44,45.44,0,0,0-45.39,45.39,10,10,0,1,0,20.09,0,25.3,25.3,0,1,1,50.6,0,10,10,0,1,0,20.09,0A45.44,45.44,0,0,0,352.74,182.55Z" fill="#e54642"/><path d="M508.83,405.7c-21.46-20.14-46.73-35.64-76.9-47.14a221.95,221.95,0,1,0-351.86,0c-30.17,11.49-55.44,27-76.9,47.14a10,10,0,0,0,13.75,14.65C37.3,401.23,61.59,386.67,91,376a173.16,173.16,0,0,0,11.83,27.21c-29.06,11.39-54.2,26.94-74.86,46.33a10,10,0,0,0,13.75,14.65c19.88-18.66,43.47-33,71.9-43.6a174.14,174.14,0,0,0,20.35,24c-32.06,11.63-58.78,27.66-81.25,48.75A10,10,0,0,0,66.43,508c22.88-21.49,50.8-37.28,85.2-48.2a174.13,174.13,0,0,0,208.75,0c34.39,10.92,62.31,26.71,85.2,48.2a10,10,0,1,0,13.75-14.65c-22.47-21.09-49.18-37.12-81.25-48.75a173.71,173.71,0,0,0,20.36-24c28.43,10.64,52,24.95,71.89,43.61a10,10,0,1,0,13.76-14.65c-20.66-19.39-45.81-34.94-74.87-46.33A173.21,173.21,0,0,0,421.06,376c29.35,10.69,53.64,25.26,74,44.38a10,10,0,0,0,13.75-14.65Zm-97.11-54c-9.8-3-20.11-5.58-30.78-7.78a10,10,0,1,0-4.06,19.67c8.64,1.79,17,3.86,25.06,6.17a152.91,152.91,0,0,1-12,26.67c-10.66-3.34-22-6.27-33.76-8.72a10,10,0,1,0-4.08,19.68c9.1,1.89,17.89,4.08,26.27,6.53A153.56,153.56,0,0,1,356,437.49c-7.93-2.23-16.16-4.25-24.59-6a10,10,0,0,0-4.07,19.67q3.74.78,7.41,1.62a154.32,154.32,0,0,1-157.58,0c2.45-.56,4.93-1.1,7.42-1.62a10,10,0,1,0-4.08-19.67c-8.43,1.74-16.66,3.76-24.58,6A154.11,154.11,0,0,1,133.6,413.9c8.39-2.45,17.17-4.64,26.28-6.53a10,10,0,0,0-4.08-19.67c-11.79,2.44-23.1,5.37-33.76,8.71a152.58,152.58,0,0,1-12-26.67c8-2.31,16.41-4.38,25.05-6.16a10,10,0,0,0-4.06-19.68c-10.66,2.2-21,4.82-30.78,7.78a201.55,201.55,0,0,1-46.14-128.4C54.14,112,144.7,21.41,256,21.41S457.86,112,457.86,223.28A201.6,201.6,0,0,1,411.72,351.68Z" fill="#e54642"/><path d="M159.26,182.55a45.44,45.44,0,0,0-45.39,45.39,10,10,0,1,0,20.09,0,25.3,25.3,0,0,1,50.6,0,10,10,0,1,0,20.09,0A45.44,45.44,0,0,0,159.26,182.55Z" fill="#e54642"/></svg>