<svg xmlns="http://www.w3.org/2000/svg" width="45.5" height="30.5" viewBox="0 0 45.5 30.5"><title>Untitled-4</title><g style="isolation:isolate"><g id="Layer_1" data-name="Layer 1"><g opacity="0.8" style="mix-blend-mode:multiply"><path d="M-2.75-.75v-1a.85.85,0,0,0,1-1h2v1c-1.39.24-1.16,1-.64,1.88A.69.69,0,0,0,.25-.75a5.34,5.34,0,0,1,4-1c.12.74-.59,1-.9,1.42a.73.73,0,0,0,.9.58v2C3.65,2.13,3,2.49,2.42,2,2.19,1.75,2,.87,1.27,1.74v3L-.25,6.25c-1-.31.1-2.16-1.5-2a.85.85,0,0,0-1-1v-1C-1.38,1.24-1.38.26-2.75-.75Z" fill="#97d0d2"/><path d="M5.25-7.75c.09-1.5,1.24-.85,2-1,.13.61-.31,1.33.34,1.85.76-.08,1.06-1.24,2-.85.71.31,1.05,1.37,1.72,1.13.94-.37,1.1-1.28,1.93-1.13a2.3,2.3,0,0,0,1,2.5,2.29,2.29,0,0,1,1,2.5c.34,1.08-.6,1.8-.9,3h1.9v1c-2.18.09-4.35.16-6-1.66-.25-1.53,1.59-1.77,1.88-3-.69-.37-.89-1.39-1.88-1.34-1.08.36-1.81-.64-3-.88v2.88h-1c.11-.61-.26-.89-.76-1C4.43-4,3.23-3.28,2.28-4.2c.26-.57,1.11-.74,1-1.55h2a.71.71,0,0,0,.6.89c.07,0,.31-.22.29-.29a.71.71,0,0,0-.89-.6v-2Z" fill="#90cbcc"/><path d="M-8.75,32.25v-9a.85.85,0,0,0,1-1c1-.38,2.53.93,3-1v-2h2v1c-1.21,0-1,.83-.9,1.63,1,.58,2,.78,2.9-.18V20.25c.89.06,1-.51,1-1.2v-3.8h1v1c0,1.91-.19,3.84,1.11,5.22C1.82,22.64.5,21.81.24,23c0,1.34.85,1.93,2,2.3h1c-.15.76.5,1.91-1,2-2.1.51-1.95,2.7-3,4a.85.85,0,0,0-1,1c-1.19,0-1,.82-.93,1.57.41.81,1.58,0,1.89,1-.31.49-1.08.69-1,1.47a.72.72,0,0,0-.88.49c.23.6,1,.75.88,1.51-.76.15-1.91-.5-2,1-.79,0-1.61.17-2.19-.67-.45-.66-1.2-.21-1.81-.33-.38-1,.93-2.53-1-3v-1a.78.78,0,0,0,1-.76C-7.69,32.82-7.81,32.18-8.75,32.25Zm5.69-2c.8-1.67.23-2.93-1.33-4a5,5,0,0,0,0,4Z" fill="#8ecccf"/><path d="M-7.75,10.25v-1h2c.36.83-1.18.91-.66,2h2.66c.13,1-.33,2.07.5,3,.8-.67.38-1.37.5-2a.85.85,0,0,0,1-1c1.7.31,1,2.24,2,3-.81,0-1.86-.25-2.16.71C-2.56,17-4.26,18-5.75,19.25l-2-1a.73.73,0,0,1-.9-.58c.31-.47,1-.68.9-1.42v-1c1.26-.07,1-.87.86-1.64-.55-.65-1.25-.24-1.86-.36C-8.61,12.19-7.26,11.52-7.75,10.25Z" fill="#93cbcd"/><path d="M-5.75,19.25C-4.26,18-2.56,17-1.91,15c.3-1,1.35-.72,2.16-.71h1v1h-1c-.93-.07-1,.56-1,1.24a2.45,2.45,0,0,1-2,2.76h-2v2c-1,.38-2.53-.93-3,1a.85.85,0,0,1-1,1V20.43c0-.69.13-1.24,1-1.18a.78.78,0,0,0,.76,1C-6.32,20.31-5.68,20.19-5.75,19.25Z" fill="#95cfd1"/><path d="M-1.75,11.25a.85.85,0,0,1-1,1,.85.85,0,0,0-1-1V6.46c0-.68-.1-1.28-1-1.21.21-.37.39-.76.62-1.11.6-.91.75-1.65-.62-1.89l1-2h1v3c.21.62-.51,1.57.65,1.87.13-.31.24-.59.35-.87,1.6-.16.53,1.69,1.5,2L1.27,4.73v-3c.76-.87.92,0,1.15.22.58.53,1.23.17,1.83.29v4c-.76.15-1.91-.5-2,1,.12.8-.46,1.89,1.08,2a6.28,6.28,0,0,1,1.92,1v1c-1.06.14-1.73,1.49-3,1-2.47-.71-2.1-3.49-4-5.1,1.37,1.61-1,1.69-.67,2.86C-2.16,10.43-1.59,10.63-1.75,11.25Z" fill="#90cccf"/><path d="M4.25,2.25v-2h2c.15.76-.5,1.91,1,2v4h-1C6.33,4.54,6.46,2.81,4.25,2.25Z" fill="#90cccf"/><path d="M6.25.25h-2a.73.73,0,0,1-.9-.58c.31-.47,1-.68.9-1.42a.73.73,0,0,1,.58-.9c.47.31.68,1,1.42.9v2Z" fill="#8cc8ca"/><path d="M.25-1.75v1A.69.69,0,0,1-.39.13C-.91-.74-1.14-1.51.25-1.75Z" fill="#88cdcd"/><path d="M6.25.25v-1a.85.85,0,0,0,1-1h1a2.46,2.46,0,0,0,2-3c1,0,1.19,1,1.88,1.34-.29,1.23-2.13,1.47-1.88,3,1.65,1.82,3.82,1.75,6,1.66v2c.12.78-.94,1-.91,1.46.11,1.75-1,1.56-2.09,1.54-.88-1.61-1.8-3.15-4-3-.12-.61.29-1.31-.36-1.86-.77-.19-1.57-.4-1.64.86C5.75,2.16,6.4,1,6.25.25Z" fill="#94ced0"/><path d="M15.25-2.75h2v2a.85.85,0,0,0-1,1h-1.9C14.65-.95,15.59-1.67,15.25-2.75Z" fill="#94d1d5"/><path d="M16.25,3.25v-3h1a.85.85,0,0,0,1,1h1a.78.78,0,0,1-.76,1c-.67.08-1.31.08-1.24,1Z" fill="#8fcccf"/><path d="M3.25,35.25v-2h-2c-.15-.76.5-1.91-1-2h-1c1.05-1.3.9-3.49,3-4v3h2c.12.76-.61,1-.93,1.44.55.63.94,1.46,1.93,1.56h4a5.34,5.34,0,0,1,4,1c0,1.28-.32,2.65.93,3.65l-.93.35h-2c-.12-.61.3-1.32-.33-1.83s-2.44.72-2.67-1.17a.78.78,0,0,0-.71-1A5.49,5.49,0,0,0,3.25,35.25Z" fill="#84c9cd"/><path d="M1.25,15.25v-1H4.68c1.07.27,0,2.18,1.57,2,.17,1.55-1.51.57-1.88,1.37a.69.69,0,0,0,.88.63c-.16,1,1.61,1.26.53,3.37,0,.08-1.38.38-1.53,1.63-.76.15-1.91-.5-2,1v1c-1.16-.37-2.06-1-2-2.3.26-1.14,1.58-.31,2.12-1.48-1.3-1.38-1.13-3.31-1.11-5.22,1-.13,2.07.33,3-.54C3.19,15,2.19,15.37,1.25,15.25Z" fill="#8dcace"/><path d="M4.25,30.25h-2v-3c1.5-.09.85-1.24,1-2h2c.09.87-.44,2.07,1.24,2a.75.75,0,0,1,.76,1c-1.33.18-2.75-.42-4,.45C3.59,29.27,4.37,29.46,4.25,30.25Z" fill="#7ec5c9"/><path d="M-2.75,19.25a2.45,2.45,0,0,0,2-2.76c0-.68.06-1.31,1-1.24v3.8c0,.69-.11,1.26-1,1.2h-2Z" fill="#8dcace"/><path d="M1.25,15.25c.94.12,1.94-.29,3,.46-1,.87-2.07.41-3,.54Z" fill="#86c6c9"/><path d="M2.25,25.25v-1a.85.85,0,0,1,1,1Z" fill="#7ec5c9"/><path d="M2.25,14.25h-2c-1-.76-.3-2.69-2-3,.16-.62-.41-.82-.72-1.24-.37-1.17,2-1.25.67-2.86,2,1.61,1.58,4.39,4.05,5.1Z" fill="#95d0d3"/><path d="M2.25,14.25v-2c1.27.49,1.94-.86,3-1s1.45,1.87,3,.53V10.25c1.68.3,1.82,1.89,2.53,3h1.47v1l-2,1h-2c-.11-.6.28-1.29-.31-1.82C6.5,14.62,6.5,14.62,6.25,16.25c-1.61.18-.5-1.73-1.57-2Z" fill="#91cdd2"/><path d="M6.25,6.25h3c-.14,1.06-1.49,1.73-1,3v1h-3a6.28,6.28,0,0,0-1.92-1c-1.54-.15-1-1.24-1.08-2,.76-.15,1.91.5,2-1Z" fill="#91cdd2"/><path d="M6.25,6.25h-2v-4C6.46,2.81,6.33,4.54,6.25,6.25Z" fill="#8bc9cb"/><path d="M5.25,10.25h3v1.53c-1.55,1.34-2-.69-3-.53Z" fill="#95cfd2"/><path d="M4.25,6.25c-.09,1.5-1.24.85-2,1C2.34,5.75,3.49,6.4,4.25,6.25Z" fill="#94d4d5"/><path d="M9.25,6.25h-2v-4c.07-1.26.87-1,1.64-.86.65.55.24,1.25.36,1.86-.49,0-.85.07-.84,1.22l2.2,1.25Z" fill="#8fc9cc"/><path d="M9.25,6.25l1.36-.53L8.41,4.47c0-1.15.35-1.27.84-1.22,2.2-.15,3.12,1.39,4,3-.61.21-1.58-.52-1.86.64.55.65,1.25.24,1.86.36l-2,3c-1.06-.14-1.73-1.49-3-1C7.76,8,9.11,7.31,9.25,6.25Z" fill="#99d2d3"/><path d="M16.25,3.25h1v2c-1.5.09-.85,1.24-1,2h-3v-1c1.08,0,2.2.21,2.09-1.54C15.31,4.25,16.37,4,16.25,3.25Z" fill="#90cbcc"/><path d="M19.25,1.25h-1c-.38-1,.93-2.53-1-3v-1c-.33-.67-.67-1.33-1-2h2a2.44,2.44,0,0,0,2,2v1c-.28.11-.76.17-.79.34-.14.6.3.7.79.66C20.1,0,20.75,1.16,19.25,1.25Z" fill="#80c5c7"/><path d="M17.25-1.75c1.93.47.62,2,1,3a.85.85,0,0,1-1-1v-2Z" fill="#90cbcc"/><path d="M17.25-.75v1h-1A.85.85,0,0,1,17.25-.75Z" fill="#92cfd2"/><path d="M20.25-2.75v-2h1c.11.6-.28,1.29.34,1.84l1.32-.68c.62.55.23,1.24.34,1.84v2c.21,1.05-2.21,1.57-.58,2.92,1.56.6,2.67-2.26,4.48-.52V3.88c-.94.68-1.95.24-2.9.37C22.85,4,22,4.77,21.31,5.79c.31.49,1.06.69.94,1.46v1h-1c-.81.13-1-.69-1.43-.93-1.08.23,0,2.07-1.57,1.93-.15-.76.5-1.91-1-2v-2a.78.78,0,0,0,1-.76c.08-.67,0-1.31-1-1.24-.07-.94.57-.94,1.24-1a.78.78,0,0,0,.76-1c1.5-.09.85-1.24,1-2,.28-.11.76-.17.79-.34.14-.6-.3-.7-.79-.66Z" fill="#92cfd2"/><path d="M9.25,33.25h-1c-1.31-1.47-1-3.27-1-5,1.71-.08,3.44-.21,4,2a.85.85,0,0,0,1,1c0,1.34-1,.94-1.75,1S9.18,32.3,9.25,33.25Z" fill="#7ec5c9"/><path d="M9.25,33.25c-.07-1,.58-1,1.25-1s1.74.35,1.75-1c.81.13,1-.68,1.5-1,.51.31.69,1.12,1.5,1a5.34,5.34,0,0,0,1,4c-1.27.49-1.94-.86-3-1A5.34,5.34,0,0,0,9.25,33.25Z" fill="#83c7ca"/><path d="M7.25,28.25c0,1.73-.31,3.53,1,5h-3c-.38-1,.93-2.53-1-3,.12-.79-.66-1-1-1.55C4.5,27.83,5.92,28.43,7.25,28.25Z" fill="#78c2c6"/><path d="M4.25,30.25c1.93.47.62,2,1,3-1-.1-1.38-.93-1.93-1.56C3.64,31.21,4.37,31,4.25,30.25Z" fill="#7ec5c9"/><path d="M15.25,31.25c-.81.13-1-.68-1.5-1-.51.31-.69,1.12-1.5,1a.85.85,0,0,0-1-1c-.56-2.21-2.29-2.08-4-2a.75.75,0,0,0-.76-1c-1.68,0-1.15-1.16-1.24-2,0-2,2.44-.23,3.1-2H4.25C4.4,22,5.75,21.7,5.78,21.62c1.08-2.11-.69-2.35-.53-3.37,1.84-.51,3.23,1.17,5,1-.49,1.27.86,1.94,1,3a2.55,2.55,0,0,0-1.87,1.67c.69.38.9,1.39,1.87,1.33-.31,1.29.41,2.09,1.31,2.81,1.13.62,2.51-.35,3.63.6.08.56-.06,1.25.64,1.59h1.42c-.09,1.5-1.24.85-2,1Z" fill="#88cacf"/><path d="M10.25,19.25c-1.77.17-3.16-1.51-5-1a.69.69,0,0,1-.88-.63c.37-.8,2.05.18,1.88-1.37l2-1h2a.75.75,0,0,0,.76,1c1.68,0,1.16,1.16,1.24,2C11.49,18.4,10.34,17.75,10.25,19.25Z" fill="#87c6ca"/><path d="M4.25,23.25h4.1c-.66,1.77-3.09,0-3.1,2h-2a.85.85,0,0,0-1-1C2.34,22.75,3.49,23.4,4.25,23.25Z" fill="#80c5c6"/><path d="M12.25,18.25c-.08-.87.44-2.07-1.24-2a.75.75,0,0,1-.76-1l2-1c.61-.13,1.33.31,1.81-.29.55-.86-.34-2,.71-2.7h1c.93.36-.06,2.22,1.32,2,1.22-.1,1.47-1.07,2.15-1.5a2.58,2.58,0,0,1-1-2.54c1.57.14.49-1.7,1.57-1.93.44.24.62,1.06,1.43.93a5,5,0,0,0-.65,5h1.65c1.27-.49,1.94.86,3,1v6.66L23.54,22c.31.4.87.61.71,1.22-1.55,1-3.12,1.65-4.6.16-.59.45-.79,1-1.4.84v-2c1.33-.2,2.8.45,4-.46,0-.47,0-.78-.06-1.08-.61-1.25-2.74.6-3-1.55,1.29-.08,2.58-.08,3.81-.08.26-.69,1.19-.76.91-1.85-1.69.15-3.57-.58-4.72,1.93a20.55,20.55,0,0,1-2-.91c-.12-.61.3-1.32-.34-1.84-.91-.1-1.88-.58-2.66.35v1.49Zm3.87-3.5a2.86,2.86,0,0,0,3.26,0A2.86,2.86,0,0,0,16.12,14.75Z" fill="#8fcccf"/><path d="M18.25,9.25a2.58,2.58,0,0,0,1,2.54c-.68.43-.93,1.4-2.15,1.5-1.38.19-.39-1.67-1.32-2h-1c-1,.66-.16,1.84-.71,2.7-.48.6-1.2.16-1.81.29v-1c.49-1.27-.86-1.94-1-3l2-3h3c.11.28.17.76.34.79.6.14.7-.3.66-.79C18.75,7.34,18.1,8.49,18.25,9.25Z" fill="#94ced0"/><path d="M11.25,10.25c.14,1.06,1.49,1.73,1,3H10.78c-.71-1.11-.85-2.7-2.53-3v-1C9.52,8.76,10.19,10.11,11.25,10.25Z" fill="#95cfd2"/><path d="M8.25,15.25l-2,1c.25-1.63.25-1.63,1.69-2.82C8.53,14,8.14,14.65,8.25,15.25Z" fill="#8dcace"/><path d="M13.25,6.25v1c-.61-.12-1.31.29-1.86-.36C11.67,5.73,12.64,6.46,13.25,6.25Z" fill="#94ced0"/><path d="M17.25,7.25c0,.49-.06.93-.66.79-.17,0-.23-.51-.34-.79.15-.76-.5-1.91,1-2Z" fill="#8fcccf"/><path d="M17.25,3.25c.94-.07,1.06.57,1,1.24a.78.78,0,0,1-1,.76Z" fill="#8fcccf"/><path d="M24.25,4.25c.95-.13,2,.31,2.9-.37V2.65c-1.81-1.74-2.92,1.12-4.48.52C21,1.82,23.46,1.3,23.25.25c.81.14,1-.71,1.54-1,.83.39.07,1.63,1,2h5.43v1c-2.3-.33-2.81,1.49-3.55,3H24.25Z" fill="#88c7ca"/><path d="M22.25,13.25H20.6a5,5,0,0,1,.65-5h1a.85.85,0,0,0,1-1h1c1.5.09.85,1.24,1,2A7.78,7.78,0,0,0,22.25,13.25Z" fill="#7ec2c6"/><path d="M28.25,1.25H25.82c-1-.34-.2-1.58-1-2-.56.26-.73,1.11-1.54,1v-2c1.5-.09.85-1.24,1-2,.79,0,1.61-.17,2.19.67.45.66,1.2.21,1.81.33a.85.85,0,0,0,1,1c.17,1.55-1.51.57-1.88,1.37a.69.69,0,0,0,.88.63Z" fill="#8fcdcf"/><path d="M24.25,7.25h-2c.12-.77-.63-1-.94-1.46.7-1,1.54-1.82,2.94-1.54v3Z" fill="#9ad3d7"/><path d="M22.25,7.25h1a.85.85,0,0,1-1,1Z" fill="#8fcccf"/><path d="M28.25,1.25v-1a2.42,2.42,0,0,0,2.84-1.67c-.55-.61-1.24-.22-1.84-.33a.85.85,0,0,1-1-1l.81-.31C28-4.48,27.29-5.15,27.25-6.75c1.5-.09,1.85-2.24,2-3h3v2.54c-1,.9-2.18-.06-2.9.85-.14.78-.31,1.57.9,1.61a6.9,6.9,0,0,0,3.69,2.81c.11-.27.21-.54.31-.81H36.7c1.18,1.94,1.63,2.23,4.55,3v2h-2a2.33,2.33,0,0,1-2.48-1c-1.57,1.06-1.57,1.06-3.52,0a.78.78,0,0,0-.76-1c-.67-.08-1.31,0-1.24,1Z" fill="#86cbcd"/><path d="M16.25,31.25c.76-.15,1.91.5,2-1h2v1.54l2,.91c.14,1.17-.3,2.33.29,3.34.83.69,2.49-.68,2.72,1.21l-2,1c-.47-1.93-2-.62-3-1a4.58,4.58,0,0,1-4-2h2C17.66,33.63,15.64,33.06,16.25,31.25Z" fill="#86c8ca"/><path d="M11.25,30.25a.85.85,0,0,1,1,1A.85.85,0,0,1,11.25,30.25Z" fill="#83c7ca"/><path d="M20.25,30.25H16.83c-.7-.34-.56-1-.64-1.59-1.12-.95-2.5,0-3.63-.6-.9-.72-1.62-1.52-1.31-2.81h2c1-.19,1.46,2,3,.51V23.25c1.34,0,.94,1,1,1.75s.06,1.32,1,1.25c.15.76-.5,1.91,1,2h1v2Z" fill="#83c8cb"/><path d="M12.25,18.25h2c.12.6-.29,1.3.34,1.84,1.54.15,3.17.19,3.66,2.16h-2c-.64-1.78-1.93-1.22-2.85-.55a3.33,3.33,0,0,1-2.15.55c-.14-1.06-1.49-1.73-1-3C10.34,17.75,11.49,18.4,12.25,18.25Z" fill="#8ccdd0"/><path d="M16.25,23.25v2.51c-1.54,1.46-2-.7-3-.51a.78.78,0,0,0-.76-1c-.67-.08-1.31,0-1.24,1-1,.06-1.18-.95-1.87-1.33a2.55,2.55,0,0,1,1.87-1.67c-.06.89.51,1,1.2,1Z" fill="#8ccdd0"/><path d="M24.25,23.25c.16-.61-.4-.82-.71-1.22l1.71-1.12V15.25h3c1.6-.16.53,1.66,1,1.81l2.07-1.12-1-1.27c.64-.69,1.32-.31,1.92-.42h5c.14.81-.7,1-1,1.52,1,.47.79,1.62,1.37,2.28.67.85,2.38-.72,2.6,1.2-.94.12-1.94-.29-2.8.29-.68.81.7,2.48-1.2,2.71a2.46,2.46,0,0,0-3,2h-1c-.67-2.12-2.6-.36-3.69-1.2-.88-.64-1.32-2-2.63-1.81S25.87,23.45,24.25,23.25ZM32.33,20c1.49-.4,2.13,2.09,3.72,1a1.31,1.31,0,0,0-.3-1.75c-.37-.31-.66-.85-1.06-.95-.6-.14-1.32.07-1.43-.83-.07-.54,0-1.18-.93-1Z" fill="#92ced0"/><path d="M20.25,28.25h-1c-.38-1,.93-2.53-1-3v-1c.61.15.81-.39,1.4-.84,1.48,1.49,3.05.88,4.6-.16.09,1.5,1.24.85,2,1-.4,2.31-2.71,1.63-4,2.38v2.62h-1A.85.85,0,0,0,20.25,28.25Z" fill="#92d0d1"/><path d="M27.25,15.25h-1a.85.85,0,0,0-1-1c-1.06-.14-1.73-1.49-3-1a7.78,7.78,0,0,1,3-4l5,2v1c-.76.15-1.91-.5-2,1C26.75,13.34,27.4,14.49,27.25,15.25Zm-2.5-4c-.47.32-.47.66,0,1C25.22,11.92,25.22,11.58,24.75,11.26Z" fill="#84c8ca"/><path d="M18.25,22.25c-.49-2-2.12-2-3.66-2.16-.63-.54-.22-1.24-.34-1.84h3l2,1c.21,2.06,2.34.21,2.95,1.46,0,.3,0,.61.06,1.08C21.05,22.7,19.58,22.05,18.25,22.25Z" fill="#8bcbcc"/><path d="M19.23,19.08c1.16-2.43,3-1.7,4.73-1.85.28,1.09-.65,1.16-.91,1.85Z" fill="#93d0d3"/><path d="M17.25,18.25h-3V16.76c.78-.93,1.75-.45,2.66-.35C17.55,16.93,17.13,17.64,17.25,18.25Z" fill="#92d1d0"/><path d="M18.25,24.25v2c-.95.07-1-.58-1-1.25s.35-1.74-1-1.75v-1h2Z" fill="#8bcbcc"/><path d="M16.12,14.75a2.86,2.86,0,0,1,3.26,0A2.86,2.86,0,0,1,16.12,14.75Z" fill="#8ecfd5"/><path d="M25.25,14.25a.85.85,0,0,1,1,1h-1Z" fill="#8dcccf"/><path d="M30.25,11.25l-5-2c-.15-.76.5-1.91-1-2v-2H27.7c.74-1.51,1.25-3.33,3.55-3,.94,1.93-1.35,1.7-2,2.62l1,.38c.21,1.61-1.73.49-2,2,2.2-.9,2.33,1.83,4,2v5c-.6.11-1.28-.27-1.92.42l1,1.27-2.07,1.12c-.46-.15.61-2-1-1.81v-2h2a.85.85,0,0,0,1-1A.85.85,0,0,0,30.25,11.25Z" fill="#92cfd2"/><path d="M31.25,2.25v-1h2c-.11.67.35,1.5-.46,1.9C32.17,2.94,32,2.1,31.25,2.25Z" fill="#7fc3c5"/><path d="M29.25-1.75c.6.11,1.29-.28,1.84.33A2.42,2.42,0,0,1,28.25.25a.69.69,0,0,1-.88-.63C27.74-1.18,29.42-.2,29.25-1.75Z" fill="#88c7ca"/><path d="M39.25,2.25h2v-2c.81.13,1-.68,1.52-1,.65,1.13.82,2.68,2.48,3l4,2v-2c1.65-.19,3.39.38,5-.32-.4-1.14-2.21-.09-2-1.68a5.34,5.34,0,0,1,4,1v5c-1.84-.51-3.23,1.17-5,1-.12-.61.3-1.32-.34-1.84-.91-.1-1.88-.58-2.66.35V7.25h-2c.33-1.67-1.15-2.63-1.54-4-1.22-.59-1.45,1.14-2.46,1-1.27.49-1.94-.86-3-1Z" fill="#7dc4c7"/><path d="M45.25,2.25c-1.66-.31-1.83-1.86-2.48-3-.53.31-.71,1.12-1.52,1-2.92-.77-3.37-1.06-4.55-3H34.25c0-1.34,1-.94,1.75-1s1.32-.06,1.25-1C38.44-4.26,39.46-3,41-4c.41-.84-1.14-.92-.78-1.75a2.51,2.51,0,0,1,2.52,1c.5-.38.78-1.11,1.59-1,1.79-.06-.12,2.66,2,2.15-.33.88-1.22,1-1.06,1.85s-.69,1-1.07,1.7C45.59.19,45.22,1.3,45.25,2.25Z" fill="#7bc4c8"/><path d="M39.25,2.25v1c-.94.12-1.94-.29-2.86.34-.25.52,0,1.29-.68,1.66H34.25a.78.78,0,0,0-.76-1c-.67-.08-1.31,0-1.24,1h-2l-1-.38c.65-.92,2.94-.69,2-2.62.79-.15.92.69,1.54.9.81-.4.35-1.23.46-1.9,2,1.07,2,1.07,3.52,0A2.33,2.33,0,0,0,39.25,2.25Z" fill="#84c8ca"/><path d="M33.25,1.25h-2c-.07-.94.57-1.06,1.24-1A.78.78,0,0,1,33.25,1.25Z" fill="#84c8ca"/><path d="M47.25-1.75a4.58,4.58,0,0,0,2,4v2l-4-2c0-.95.34-2.06-1.07-2.3.38-.71,1.2-.89,1.07-1.7Z" fill="#76c0c3"/><path d="M24.25,32.25c.17,1-1.58,1.25-.95,2.53s2.1-.14,2.85.86c.14.78.31,1.57-.9,1.61-.23-1.89-1.89-.52-2.72-1.21-.59-1-.15-2.17-.29-3.34l-2-.91V29.25h3c.12.76-.61,1-.93,1.44C22.87,31.32,23.26,32.15,24.25,32.25Z" fill="#88cacf"/><path d="M18.25,26.25v-1c1.93.47.62,2,1,3C17.75,28.16,18.4,27,18.25,26.25Z" fill="#8fcccf"/><path d="M11.25,25.25c-.07-.94.57-1.06,1.24-1a.78.78,0,0,1,.76,1Z" fill="#88cacf"/><path d="M21.25,29.25h-1v-1A.85.85,0,0,1,21.25,29.25Z" fill="#8fcccf"/><path d="M16.25,22.25v1h-3.8c-.69,0-1.26-.11-1.2-1a3.33,3.33,0,0,0,2.15-.55C14.32,21,15.61,20.47,16.25,22.25Z" fill="#92d3d6"/><path d="M32.25,12.25v-1c2-.13,4.07.31,6-.29V9.76c-.61-1.32-2.78.57-3-1.51,1-.38,2.53.93,3-1h1c.76,1,2.69.3,3,2-.49,1.27.86,1.94,1,3a2.44,2.44,0,0,0-2,2.26.78.78,0,0,1-1,.74c-.11-.28-.17-.76-.34-.79-.6-.14-.7.3-.66.79-.28.11-.76.17-.79.34-.14.6.3.7.79.66l2,1a.85.85,0,0,0,1,1v1h-2c-.22-1.92-1.93-.35-2.6-1.2-.58-.66-.39-1.81-1.37-2.28.27-.54,1.11-.71,1-1.52-.41-.84,1.28-.92.63-2Z" fill="#8dcccf"/><path d="M41.25,19.25h1v2.18c1.92-1.81,3.47-1.17,5-.18v1a2.45,2.45,0,0,1-2.76,2c-.68,0-1.31.06-1.24,1h-2c-.42-.84,1.33-.93.67-1.91H40.66c-.69.62-.3,1.31-.41,1.91a5.34,5.34,0,0,1-4-1v-2c1.9-.23.52-1.9,1.2-2.71.86-.58,1.86-.17,2.8-.29.11.28.17.76.34.79C41.19,20.18,41.29,19.74,41.25,19.25Z" fill="#96d1d3"/><path d="M41.25,25.25h1c-.2,2.09-2.39.18-3,1.47.27.55,1.11.72,1,1.53-1,.38-2.53-.93-3,1a5.34,5.34,0,0,0-4-1,.85.85,0,0,0-1-1v-3h4a5.34,5.34,0,0,0,4,1Z" fill="#8ccbce"/><path d="M26.25,24.25c-.76-.15-1.91.5-2-1,1.62.2.48-1.78,1.68-2s1.75,1.17,2.63,1.81c1.09.84,3-.92,3.69,1.2-1.24.08-2.64-.42-3.65,1.27C28.32,23.91,27.21,24.28,26.25,24.25Z" fill="#8dcacc"/><path d="M32.33,20V16.49c.94-.21.86.43.93,1,.11.9.83.69,1.43.83.4.1.69.64,1.06.95a1.31,1.31,0,0,1,.3,1.75C34.46,22.05,33.82,19.56,32.33,20Z" fill="#8cc8c7"/><path d="M32.25,12.25h5.63c.65,1.08-1,1.16-.63,2h-5Z" fill="#8bcbc9"/><path d="M36.25,24.25h-3a2.46,2.46,0,0,1,3-2Z" fill="#99d6d8"/><path d="M28.25,13.25v2h-1C27.4,14.49,26.75,13.34,28.25,13.25Z" fill="#8dcccf"/><path d="M26.25,24.25c1,0,2.07-.34,2.35,1.27,1-1.69,2.41-1.19,3.65-1.27v1c-1.85,1.21-4.28,1.07-6,2.58v1.42h-4V26.63C23.54,25.88,25.85,26.56,26.25,24.25Z" fill="#8fcccf"/><path d="M30.25,13.25h-2c.09-1.5,1.24-.85,2-1Z" fill="#8dcccf"/><path d="M24.75,11.26c.47.32.47.66,0,1C24.28,11.92,24.28,11.58,24.75,11.26Z" fill="#8fcccf"/><path d="M30.25,11.25a.85.85,0,0,1,1,1h-1Z" fill="#8dcccf"/><path d="M38.25,7.25c-.47,1.93-2,.62-3,1s-1.8-.6-3-.9v1.9c-1.71-.18-1.84-2.91-4-2,.31-1.5,2.25-.38,2-2h2a.78.78,0,0,0,.76,1c.67.08,1.31,0,1.24-1h1.46c.71-.37.43-1.14.68-1.66.92-.63,1.92-.22,2.86-.34.49,1.27-.86,1.94-1,3-.61.21-1.58-.52-1.86.64C36.94,7.54,37.64,7.13,38.25,7.25Z" fill="#89cacd"/><path d="M32.25,9.25V7.35c1.2.3,1.92,1.24,3,.9.2,2.08,2.37.19,3,1.51V11c-1.91.6-4,.16-6,.29Z" fill="#90d0d1"/><path d="M30.25,12.25h1a.85.85,0,0,1-1,1Z" fill="#92ced0"/><path d="M42.25,9.25c-.31-1.7-2.24-1-3-2a2.44,2.44,0,0,1,2.26-2,.77.77,0,0,0,.74-1c1,.17,1.24-1.56,2.46-1,.39,1.34,1.87,2.3,1.54,4-.6.12-1.3-.29-1.84.33l.86,1.67Z" fill="#86c9cc"/><path d="M42.25,9.25h3l-.86-1.67c.54-.62,1.24-.21,1.84-.33h5c-.23,1.89-1.89.52-2.67,1.17-.63.51-.21,1.22-.33,1.83h-3v2h-2C43.11,11.19,41.76,10.52,42.25,9.25Z" fill="#89cace"/><path d="M42.25,4.25a.77.77,0,0,1-.74,1,2.44,2.44,0,0,0-2.26,2h-1v-1c.14-1.06,1.49-1.73,1-3C40.31,3.39,41,4.74,42.25,4.25Z" fill="#84c8ca"/><path d="M34.25,5.25c.07.94-.57,1.06-1.24,1a.78.78,0,0,1-.76-1c-.07-.94.57-1.06,1.24-1A.78.78,0,0,1,34.25,5.25Z" fill="#8dced1"/><path d="M25.25,29.25h1c2.17.7,3.95-1,6-1h1c-.33.67-.67,1.33-1,2,0,1.44-.27,3,1.35,3.81.75.38,1.58.43,1.65-.81h3v2c-1.13.29-2.11,1-1.93,2.14s-1,1.82-1.07,2.86h-3v-3c0-.49.14-1.11.67-.76S34.09,37.62,35,37c.41-.61.36-1.18-.37-1.86H31.43c-.11-.94-.2-1.72-.33-2.91-1.53.7-2.21-1.49-3.85-1,.07-.94-.57-.94-1.24-1A.78.78,0,0,1,25.25,29.25Z" fill="#8dcbcd"/><path d="M27.25,31.25h-1a.85.85,0,0,0-1,1h-1c-1-.1-1.38-.93-1.93-1.56.32-.48,1.05-.68.93-1.44h2a.78.78,0,0,0,.76,1C26.68,30.31,27.32,30.31,27.25,31.25Z" fill="#86c8ca"/><path d="M41.25,17.25l-2-1v-1h1a.78.78,0,0,0,1-.74,2.44,2.44,0,0,1,2-2.26,5.34,5.34,0,0,1,1,4C43.27,16.63,41.72,15.32,41.25,17.25Z" fill="#91cfd3"/><path d="M41.25,17.25c.47-1.93,2-.62,3-1v2h-2A.85.85,0,0,1,41.25,17.25Z" fill="#89cace"/><path d="M42.25,18.25h1a.85.85,0,0,1-1,1Z" fill="#92ced0"/><path d="M41.25,19.25c0,.49-.06.93-.66.79-.17,0-.23-.51-.34-.79Z" fill="#92ced0"/><path d="M39.25,15.25v1c-.49,0-.93-.06-.79-.66C38.49,15.42,39,15.36,39.25,15.25Z" fill="#92ced0"/><path d="M40.25,15.25h-1c0-.49.06-.93.66-.79C40.08,14.49,40.14,15,40.25,15.25Z" fill="#92ced0"/><path d="M43.25,25.25c-.07-.93.56-1,1.24-1a2.45,2.45,0,0,0,2.76-2h3c.76-.15,1.91.5,2-1h2v-2h1v2c-.33.67-.67,1.33-1,2h-1a.85.85,0,0,0-1,1h-1c-.07-1.27-.87-1.06-1.67-.85-.61.91-.21,1.91-.33,2.85-.28.11-.76.17-.79.34-.14.6.3.7.79.66-.09,1.5-1.24.85-2,1a.85.85,0,0,0-1,1h-2a.85.85,0,0,0-1,1h-2V27.58c1.32-.41,2.5-.65,2.81-2Z" fill="#87cace"/><path d="M50.25,22.25h-3v-1c1.24-.07,1.19-.9.81-1.65-.81-1.62-2.37-1.36-3.81-1.35v-1c1-.38,2.53.93,3-1a.85.85,0,0,0,1-1c.78,0,1.53.12,2.18-.62.48-.55.84-1.42,1.82-1.38a.85.85,0,0,0,1,1v1c.33.67.67,1.33,1,2-1.33.18-2.78-.42-4,.42-.32,1.85,1.87,2.11,2,3.58C51.49,21.4,50.34,20.75,50.25,22.25Z" fill="#90cfd1"/><path d="M44.25,18.25c1.44,0,3-.27,3.81,1.35.38.75.43,1.58-.81,1.65-1.53-1-3.08-1.63-5,.18V19.25a.85.85,0,0,0,1-1Z" fill="#99d2d5"/><path d="M43.25,25.25l.81.31c-.31,1.37-1.49,1.61-2.81,2v2.67h-1v-2c.14-.81-.7-1-1-1.53.58-1.29,2.77.62,3-1.47Z" fill="#89c9ca"/><path d="M41.25,25.25h-1c.11-.6-.28-1.29.41-1.91h1.26C42.58,24.32,40.83,24.41,41.25,25.25Z" fill="#9ed6da"/><path d="M40.25,28.25v2a2.46,2.46,0,0,1-2,3h-3v-3h-3c.33-.67.67-1.33,1-2a7.7,7.7,0,0,1,3.83.53c.64,1.56-1.95,1.69-.24,3.6.36-1.13,2.42-1.45.24-3.6C37.72,27.32,39.27,28.63,40.25,28.25Z" fill="#93d0d2"/><path d="M32.25,28.25c-2.05,0-3.83,1.7-6,1V27.83c1.72-1.51,4.15-1.37,6-2.58v3Z" fill="#93d0d2"/><path d="M32.25,28.25v-1a.85.85,0,0,1,1,1Z" fill="#81c6c8"/><path d="M38.25,6.25v1c-.61-.12-1.31.29-1.86-.36C36.67,5.73,37.64,6.46,38.25,6.25Z" fill="#8dcccf"/><path d="M52.25,13.25c-1,0-1.34.83-1.82,1.38-.65.74-1.4.61-2.18.62-.12-.8.46-1.89-1.08-2a6.28,6.28,0,0,1-1.92-1v-2h7Z" fill="#8bcdd0"/><path d="M47.25,16.25c-.47,1.93-2,.62-3,1v-1a5.34,5.34,0,0,0-1-4h2v4Z" fill="#8bcdd0"/><path d="M38.25,33.25a2.46,2.46,0,0,0,2-3h3c.14.81-.7,1-1,1.57l2,.89v2.54a5.34,5.34,0,0,0-4,1c-.09-1.5-1.24-.85-2-1Z" fill="#84c9cb"/><path d="M32.25,30.25h1c1,.76.3,2.69,2,3-.07,1.24-.9,1.19-1.65.81C32,33.25,32.24,31.69,32.25,30.25Z" fill="#86c7c8"/><path d="M44.25,34.25V32.71l-2-.89c.29-.59,1.13-.76,1-1.57a.85.85,0,0,0,1-1h1c.11.28.17.76.34.79.6.14.7-.3.66-.79a.85.85,0,0,0,1-1c.76-.15,1.91.5,2-1v-1c.12-.94-.28-1.94.33-2.85.8-.21,1.6-.42,1.67.85a.85.85,0,0,0,1,1c0,1.75.24,3.54-2.2,4.05a2.27,2.27,0,0,0-1.8,1.95c-.76.15-1.91-.5-2,1-1.5.09-.85,1.24-1,2Z" fill="#79c4c5"/><path d="M44.25,29.25a.85.85,0,0,1-1,1A.85.85,0,0,1,44.25,29.25Z" fill="#84c9cb"/><path d="M46.25,29.25c0,.49-.06.93-.66.79-.17,0-.23-.51-.34-.79Z" fill="#84c9cb"/><path d="M35.25,33.25c-1.7-.31-1-2.24-2-3h2Z" fill="#8dcbcd"/><path d="M36.9,28.31c2.36,2.62.3,2.94-.06,4.07C35.13,30.47,37.72,30.34,36.9,28.31Z" fill="#9ad5d7"/><path d="M48.25,15.25a.85.85,0,0,0-1,1h-2v-4a6.28,6.28,0,0,0,1.92,1C48.71,13.36,48.13,14.45,48.25,15.25Z" fill="#89cace"/><path d="M49.25,40.25a.78.78,0,0,1-1-.74,2.44,2.44,0,0,0-2-2.26c-.14-1.06-1.49-1.73-1-3a.85.85,0,0,0,1-1,2.44,2.44,0,0,0,2-2c.64-.17.81.44,1.48.85,1.17-.44,1.81-2.65,3.61-1.87,1.8.29,1.53,3.05,3.41,3.19,1.35-2-1.86-3-.43-4.26s0-3.29,1.93-3.91c.14,1.6-.63,3.5.37,4.73,1.45,1.78.15,2.9-.37,4.27-.76.15-1.91-.5-2,1a.85.85,0,0,0-1,1,.85.85,0,0,0-1,1c-.81-.16-1,.74-1.6,1a1.69,1.69,0,0,0-2.37-.68C51.38,38.9,49.17,39,49.25,40.25Zm1.37-5.91c.45.82.65,2.12,1.88,1.91,1.16-.37.89-1.08.38-1.91Z" fill="#44afb2"/></g></g></g></svg>